<svg width="40" height="46" viewBox="0 0 40 46" fill="none" xmlns="http://www.w3.org/2000/svg">
<path d="M28.5214 40.6094H28.5191L28.52 40.6113L19.9902 45.9966L19.9888 45.9943L19.9879 45.9962L11.7265 40.7806L14.3589 39.1028L19.9893 42.6549L25.716 39.0396V33.0513L28.5214 31.2757V40.6094ZM27.0484 4.94297L24.4069 6.61662L19.2199 3.34268L13.0918 7.21171V16.4223C14.7785 14.7516 17.089 13.7213 19.6377 13.7213C21.3653 13.7213 22.9831 14.1951 24.3718 15.0204H24.3722L24.3791 15.0245C24.5185 15.1075 24.6554 15.1943 24.79 15.2842L38.806 24.1327H38.8078V24.1336L38.8097 24.135L38.8078 24.1378V34.1187H38.8042L31.3282 38.8384L31.3268 35.4981L36.0024 32.5452V25.7044L28.7721 21.1397C28.9137 21.7934 28.989 22.4723 28.989 23.169C28.989 26.6121 27.1657 29.6244 24.4416 31.2757L9.75995 40.5435L0.00319624 34.3835H0V25.0585L2.80539 26.8245V32.8105L9.76086 37.2017L17.4396 32.3533C13.3357 31.3543 10.2864 27.6219 10.2864 23.169V5.64371L10.285 5.64186L19.2167 0.000922627L19.2172 0.00184525L19.2185 0L27.0484 4.94297ZM19.6377 17.028C16.2807 17.028 13.5594 19.7774 13.5594 23.169C13.5594 26.5606 16.2807 29.31 19.6377 29.31C22.9947 29.31 25.716 26.5606 25.716 23.169C25.716 19.7774 22.9947 17.028 19.6377 17.028ZM7.91983 10.1807L2.80539 13.4048V20.6941L3.90535 21.3883L7.94859 18.8373L7.94813 22.1786L3.90352 24.7282L3.90261 24.7296L0.00136982 22.2667H0V11.8318L7.94859 6.81498L7.91983 10.1807ZM29.5762 6.141L29.5771 6.14054L38.8092 11.9688L38.8078 11.9706V20.3347L36.0024 18.5679V13.5391L29.5748 9.48091L24.5658 12.6441L21.9189 10.9728L29.5753 6.13916L29.5762 6.141Z" fill="#F76B15"/>
</svg>
