<svg width="113" height="46" viewBox="0 0 113 46" fill="none" xmlns="http://www.w3.org/2000/svg">
<path d="M28.5214 40.6094H28.5191L28.52 40.6113L19.9902 45.9966L19.9888 45.9943L19.9879 45.9962L11.7265 40.7806L14.3589 39.1028L19.9893 42.6549L25.716 39.0396V33.0513L28.5214 31.2757V40.6094ZM27.0484 4.94297L24.4069 6.61662L19.2199 3.34268L13.0918 7.21171V16.4223C14.7785 14.7516 17.089 13.7213 19.6377 13.7213C21.3653 13.7213 22.9831 14.1951 24.3718 15.0204H24.3722L24.3791 15.0245C24.5185 15.1075 24.6554 15.1943 24.79 15.2842L38.806 24.1327H38.8078V24.1336L38.8097 24.135L38.8078 24.1378V34.1187H38.8042L31.3282 38.8384L31.3268 35.4981L36.0024 32.5452V25.7044L28.7721 21.1397C28.9137 21.7934 28.989 22.4723 28.989 23.169C28.989 26.6121 27.1657 29.6244 24.4416 31.2757L9.75995 40.5435L0.00319624 34.3835H0V25.0585L2.80539 26.8245V32.8105L9.76086 37.2017L17.4396 32.3533C13.3357 31.3543 10.2864 27.6219 10.2864 23.169V5.64371L10.285 5.64186L19.2167 0.000922627L19.2172 0.00184525L19.2185 0L27.0484 4.94297ZM19.6377 17.028C16.2807 17.028 13.5594 19.7774 13.5594 23.169C13.5594 26.5606 16.2807 29.31 19.6377 29.31C22.9947 29.31 25.716 26.5606 25.716 23.169C25.716 19.7774 22.9947 17.028 19.6377 17.028ZM7.91983 10.1807L2.80539 13.4048V20.6941L3.90535 21.3883L7.94859 18.8373L7.94813 22.1786L3.90352 24.7282L3.90261 24.7296L0.00136982 22.2667H0V11.8318L7.94859 6.81498L7.91983 10.1807ZM29.5762 6.141L29.5771 6.14054L38.8092 11.9688L38.8078 11.9706V20.3347L36.0024 18.5679V13.5391L29.5748 9.48091L24.5658 12.6441L21.9189 10.9728L29.5753 6.13916L29.5762 6.141Z" fill="#F76B15"/>
<path d="M98.6292 30.8371C98.6292 31.6917 98.9414 32.3655 99.5659 32.8585C100.19 33.3515 100.93 33.598 101.785 33.598C102.825 33.598 103.833 33.357 104.808 32.8749C106.452 32.0751 107.274 30.7659 107.274 28.9471V26.5642C106.912 26.7942 106.446 26.986 105.877 27.1394C105.307 27.2927 104.748 27.4023 104.2 27.468L102.409 27.6981C101.335 27.8406 100.53 28.0652 99.9932 28.3719C99.0839 28.8869 98.6292 29.7086 98.6292 30.8371ZM105.795 24.855C106.474 24.7673 106.929 24.4825 107.159 24.0004C107.29 23.7375 107.356 23.3595 107.356 22.8664C107.356 21.8585 106.994 21.1299 106.271 20.6807C105.559 20.2205 104.535 19.9904 103.198 19.9904C101.653 19.9904 100.557 20.4068 99.9111 21.2395C99.5495 21.6996 99.314 22.3844 99.2044 23.2937H96.4434C96.4982 21.1244 97.1994 19.6179 98.547 18.7743C99.9056 17.9197 101.478 17.4924 103.264 17.4924C105.334 17.4924 107.016 17.8869 108.309 18.6757C109.591 19.4645 110.232 20.6916 110.232 22.357V32.4969C110.232 32.8037 110.292 33.0502 110.413 33.2365C110.544 33.4227 110.812 33.5159 111.218 33.5159C111.349 33.5159 111.497 33.5104 111.662 33.4994C111.826 33.4775 112.001 33.4501 112.187 33.4173V35.603C111.727 35.7345 111.377 35.8167 111.136 35.8495C110.895 35.8824 110.566 35.8988 110.15 35.8988C109.131 35.8988 108.391 35.5373 107.931 34.8142C107.69 34.4307 107.52 33.8884 107.422 33.1872C106.819 33.976 105.953 34.6608 104.825 35.2415C103.696 35.8221 102.453 36.1125 101.094 36.1125C99.4619 36.1125 98.1252 35.6195 97.0844 34.6334C96.0545 33.6364 95.5396 32.3929 95.5396 30.9028C95.5396 29.2703 96.049 28.0049 97.0679 27.1065C98.0869 26.2081 99.4235 25.6548 101.078 25.4466L105.795 24.855Z" fill="#FFFFFF"/>
<path d="M81.2909 29.9986C81.3785 30.9847 81.625 31.7406 82.0304 32.2665C82.7754 33.2197 84.0683 33.6963 85.9089 33.6963C87.0045 33.6963 87.9687 33.4608 88.8014 32.9896C89.634 32.5076 90.0504 31.768 90.0504 30.771C90.0504 30.015 89.7162 29.4398 89.0479 29.0454C88.6206 28.8044 87.7769 28.525 86.517 28.2073L84.1669 27.6156C82.6659 27.2431 81.5593 26.8268 80.8472 26.3666C79.5762 25.5668 78.9408 24.4602 78.9408 23.0469C78.9408 21.3815 79.5379 20.0339 80.7321 19.0041C81.9373 17.9742 83.5533 17.4592 85.5802 17.4592C88.2316 17.4592 90.1435 18.2371 91.3158 19.7929C92.0499 20.779 92.4059 21.8417 92.384 22.9812H89.5902C89.5354 22.3128 89.2999 21.7048 88.8835 21.1569C88.2042 20.3791 87.0264 19.9901 85.3502 19.9901C84.2326 19.9901 83.3835 20.2038 82.8028 20.631C82.2331 21.0583 81.9483 21.6226 81.9483 22.3238C81.9483 23.0907 82.3262 23.7043 83.0822 24.1644C83.5205 24.4383 84.1669 24.6794 85.0215 24.8875L86.9771 25.3641C89.1026 25.8791 90.5269 26.3776 91.2501 26.8596C92.4005 27.6156 92.9757 28.8044 92.9757 30.4259C92.9757 31.9926 92.3785 33.3457 91.1843 34.4852C90.0011 35.6246 88.1933 36.1943 85.761 36.1943C83.1425 36.1943 81.2854 35.6027 80.1898 34.4194C79.1051 33.2252 78.5244 31.7516 78.4478 29.9986H81.2909Z" fill="#FFFFFF"/>
<path d="M72.1206 11.3796H75.0788V35.5216H72.1206V11.3796Z" fill="#FFFFFF"/>
<path d="M62.3753 25.6282L58.7104 14.9623L54.8155 25.6282H62.3753ZM57.0012 11.3796H60.699L69.4584 35.5216H65.8758L63.427 28.2905H53.8787L51.2657 35.5216H47.9131L57.0012 11.3796Z" fill="#FFFFFF"/>
</svg>
